<svg width="780" height="124" viewBox="0 0 780 124" fill="none" xmlns="http://www.w3.org/2000/svg">
<path d="M2.5 73V73C27.4629 100.843 62.5002 117.58 99.8459 119.501L129.22 121.011C153.465 122.258 176.803 111.637 191.788 92.5364L221.919 54.1297C236.531 35.5041 260.055 26.211 283.452 29.8215V29.8215L312.207 33.2432C332.969 35.7137 353.983 31.6255 372.304 21.5516L395.864 8.59742C405.071 3.53472 416.537 5.334 423.751 12.9738V12.9738L455.077 45.8519C479.006 70.9657 512.179 85.1785 546.867 85.1785V85.1785C559.994 85.1785 572.731 80.7211 582.993 72.5364L595.822 62.3042C606.11 54.0989 619.384 50.6181 632.374 52.7193L680 60.4226" stroke="black" stroke-width="5" stroke-dasharray="15 15"/>
<g clip-path="url(#clip0_88_11)">
<path d="M758.494 53.7885C757.228 53.9665 756.015 54.2597 754.879 54.7178L748.419 42.7725L749.947 42.5577C752.351 42.2198 754.501 41.0154 755.991 39.0989L757.391 37.3198C758.026 36.5028 757.879 35.3353 757.062 34.7002C756.245 34.0651 755.069 34.2175 754.434 35.0345L753.032 36.797C752.144 37.9402 750.859 38.6456 749.426 38.8471L745.226 39.4373C744.618 39.5228 744.095 39.9382 743.819 40.4863C743.543 41.0347 743.555 41.7022 743.848 42.2418L746.305 46.7828C746.294 46.7842 746.287 46.821 746.276 46.8226C746.272 46.8231 746.273 46.8576 746.269 46.8581L722.529 50.1946L718.563 45.2435L721.876 43.5433C722.692 43.1282 723.094 42.2244 722.819 41.3509C722.544 40.4777 721.684 39.9714 720.777 40.0989L710.583 41.5315C709.155 41.7323 708.149 43.0103 708.35 44.4388C708.66 46.6504 710.707 48.1737 712.916 47.8632C713.359 47.801 713.786 47.6534 714.189 47.4487L715.154 46.9516L719.171 51.9356L717.726 59.7779C716.883 59.7275 716.027 59.7417 715.163 59.8352C710.792 60.3074 706.952 62.5374 704.38 66.0668C701.907 69.46 700.94 73.6112 701.658 77.7556C703.038 85.7186 710.412 91.2756 718.447 90.4067C718.614 90.3885 718.78 90.3681 718.945 90.3449C723.103 89.7604 726.754 87.5533 729.228 84.1589C731.229 81.4125 732.232 78.0914 732.175 74.8203L735.156 74.4014C735.868 74.8058 736.756 75.0931 737.666 74.9652C739.694 74.6803 741.112 72.807 740.827 70.7794C740.735 70.1211 740.473 69.5329 740.093 69.0404L748.014 49.9408L751.608 56.5715C747.16 59.8095 744.591 65.3346 745.409 71.1518C746.589 79.5467 754.378 85.4168 762.773 84.2369C771.168 83.0571 777.038 75.2677 775.858 66.873C774.678 58.4783 766.889 52.6087 758.494 53.7885ZM743.545 51.0249L736.648 67.6564C736.645 67.6568 736.64 67.6419 736.637 67.6423C736.626 67.6438 736.62 67.669 736.609 67.6707L725.265 53.5943L743.545 51.0249ZM722.271 55.7825L733.69 69.9466C733.576 70.2404 733.507 70.5974 733.462 70.856L731.65 71.1106C730.279 66.0061 726.316 61.9921 721.408 60.4419L722.271 55.7825ZM719.731 72.7858C719.572 72.5559 719.41 72.4459 719.226 72.2935L720.493 65.3991C723.351 66.492 725.67 68.924 726.65 71.8134L719.731 72.7858ZM725.191 81.2166C723.453 83.6001 720.867 85.1135 717.909 85.4321C712.487 86.0186 707.511 82.2725 706.58 76.8988C706.095 74.0992 706.748 71.2976 708.417 69.0072C710.088 66.7156 712.553 65.237 715.36 64.8425C715.473 64.8267 715.586 64.8133 715.7 64.8009C716.073 64.7605 716.444 64.743 716.811 64.7428L715.529 71.7085C713.957 72.317 712.947 73.9455 713.192 75.6847C713.476 77.712 715.355 79.1141 717.383 78.8292C718.756 78.6362 719.862 77.8123 720.319 76.4868L727.171 75.5238C727.09 77.5532 726.418 79.533 725.191 81.2166ZM762.078 79.2904C756.411 80.0869 751.153 76.1243 750.356 70.4575C749.837 66.7639 751.341 63.2451 754.019 61.021L758.82 69.8774C759.203 70.5846 759.976 70.9459 760.728 70.8402C760.943 70.8099 761.157 70.7416 761.36 70.6314C762.269 70.1385 762.607 69.0011 762.114 68.0917L757.289 59.1903C757.896 58.9836 758.53 58.8283 759.189 58.7357C764.856 57.9393 770.114 61.902 770.911 67.5687C771.707 73.2355 767.745 78.494 762.078 79.2904Z" fill="black"/>
</g>
<defs>
<clipPath id="clip0_88_11">
<rect width="75" height="75" fill="white" transform="translate(695 30.438) rotate(-8)"/>
</clipPath>
</defs>
</svg>
